<svg id="Ebene_1" data-name="Ebene 1" xmlns="http://www.w3.org/2000/svg" xmlns:xlink="http://www.w3.org/1999/xlink" viewBox="0 0 597 108.9"><defs><style>.cls-1,.cls-3{fill:none;}.cls-2{clip-path:url(#clip-path);}.cls-3{stroke:#000;stroke-miterlimit:1.45;}.cls-4{clip-path:url(#clip-path-4);}.cls-5{clip-path:url(#clip-path-5);}.cls-6{clip-path:url(#clip-path-6);}</style><clipPath id="clip-path" transform="translate(-14.5 -10.04)"><rect class="cls-1" y="-11.33" width="626" height="208"/></clipPath><clipPath id="clip-path-4" transform="translate(-14.5 -10.04)"><rect class="cls-1" x="222" y="5.67" width="10" height="20"/></clipPath><clipPath id="clip-path-5" transform="translate(-14.5 -10.04)"><rect class="cls-1" x="277" y="56.67" width="54" height="15"/></clipPath><clipPath id="clip-path-6" transform="translate(-14.5 -10.04)"><rect class="cls-1" x="477" y="54.67" width="9" height="20"/></clipPath></defs><title>sserver</title><g class="cls-2"><g class="cls-2"><g class="cls-2"><rect class="cls-3" x="0.5" y="46.63" width="105" height="42"/><path d="M102.13,78.34h2.81c0-1.19-.44-1.78-1.32-1.78S102.24,77.15,102.13,78.34ZM106.07,82a7.13,7.13,0,0,1-2,.35,3,3,0,0,1-2.3-.93A3.4,3.4,0,0,1,100.9,79a3.57,3.57,0,0,1,.79-2.37,2.49,2.49,0,0,1,2-.92,2.1,2.1,0,0,1,1.78.82,3.74,3.74,0,0,1,.63,2.33v.36h-4c.17,1.51.91,2.26,2.22,2.26a5.48,5.48,0,0,0,1.77-.38Zm-8.13.21V73h1.15v9.26Zm-3.47-4.85a2.63,2.63,0,0,0-1.7-.79c-1.1,0-1.66.84-1.66,2.54,0,1.48.5,2.23,1.48,2.23a2.56,2.56,0,0,0,1.88-1Zm0,4.85V81a2.28,2.28,0,0,1-2.12,1.34,2.17,2.17,0,0,1-1.81-.84,3.59,3.59,0,0,1-.66-2.29,4,4,0,0,1,.75-2.55,2.47,2.47,0,0,1,3.84-.1V73h1.16v9.26Zm-7.58,0V73.53h1.23v8.68ZM73.74,78.09v-.87h6.94v.87Zm0,2.16v-.86h6.94v.86Zm-10.52,2V73.53h1.71l2.4,6.71,2.47-6.71h1.53v8.68H70.18V75.15l-2.39,6.48H66.6l-2.32-6.5v7.08ZM55.83,77V75.84H57V77Zm0,7.09v-.44c.28-.14.41-.58.41-1.31v-.13h-.41V81.05H57v1C57,83.21,56.6,83.89,55.83,84.09ZM50.7,81.55q1.83,0,1.83-3.72c0-2.43-.6-3.65-1.81-3.65s-1.81,1.23-1.81,3.68S49.51,81.55,50.7,81.55Zm0,.87a2.52,2.52,0,0,1-2.17-1.26,5.93,5.93,0,0,1-.83-3.3,5.85,5.85,0,0,1,.84-3.3,2.57,2.57,0,0,1,4.4,0,7,7,0,0,1,0,6.62A2.57,2.57,0,0,1,50.68,82.42Zm-12-4.33v-.87h6.94v.87Zm0,2.16v-.86h6.94v.86Zm-6,1.25a2.46,2.46,0,0,0,2.06-1,4.42,4.42,0,0,0,.72-2.7,4.36,4.36,0,0,0-.72-2.66,2.63,2.63,0,0,0-4.05,0,5.31,5.31,0,0,0,0,5.34A2.33,2.33,0,0,0,32.69,81.5Zm4.19,2.44a14,14,0,0,1-3.43-1.58,8.47,8.47,0,0,1-.85.06,3.59,3.59,0,0,1-2.84-1.26,5.52,5.52,0,0,1,0-6.6,3.75,3.75,0,0,1,2.95-1.24,3.76,3.76,0,0,1,3,1.24,4.86,4.86,0,0,1,1.1,3.33A4.23,4.23,0,0,1,34.56,82a13.38,13.38,0,0,0,3.1.94Z" transform="translate(-14.5 -10.04)"/><ellipse class="cls-3" cx="208.5" cy="66.63" rx="40" ry="20"/><path d="M235.43,77.34h2.8c0-1.19-.44-1.78-1.32-1.78S235.53,76.15,235.43,77.34ZM239.37,81a7.25,7.25,0,0,1-2,.35,3.05,3.05,0,0,1-2.3-.93A3.39,3.39,0,0,1,234.2,78a3.56,3.56,0,0,1,.78-2.37,2.49,2.49,0,0,1,2-.92,2.1,2.1,0,0,1,1.78.82,3.74,3.74,0,0,1,.63,2.33v.36h-4c.16,1.51.9,2.26,2.22,2.26a5.48,5.48,0,0,0,1.77-.38Zm-9.56.21-2.37-6.37h1.16l1.85,5,2-5h1.08L231,81.21ZM225,73.69V72.53h1.16v1.16Zm0,7.52V74.84h1.16v6.37Zm-4.91,0V74.84h1.16V76a2.15,2.15,0,0,1,2-1.34l.37,0v1.08a1.63,1.63,0,0,0-.53-.1,2.12,2.12,0,0,0-1.83,1.3v4.2Zm-4.91,0V74.84h1.16V76a2.15,2.15,0,0,1,2-1.34l.37,0v1.08a1.63,1.63,0,0,0-.53-.1,2.12,2.12,0,0,0-1.83,1.3v4.2Zm-2.62,0-.94-2.41H208l-1,2.41h-1.14l3.44-8.68h1.22l3.38,8.68Zm-1.3-3.32-1.48-3.74-1.48,3.74Z" transform="translate(-14.5 -10.04)"/><ellipse class="cls-3" cx="382.5" cy="66.63" rx="40" ry="20"/><path d="M408.66,76.36a2.63,2.63,0,0,0-1.7-.79c-1.1,0-1.66.84-1.66,2.54,0,1.48.49,2.23,1.48,2.23a2.56,2.56,0,0,0,1.88-1Zm0,4.85V80a2.28,2.28,0,0,1-2.12,1.34,2.17,2.17,0,0,1-1.81-.84,3.59,3.59,0,0,1-.66-2.29,4,4,0,0,1,.75-2.55,2.47,2.47,0,0,1,3.84-.1V72h1.16v9.26Zm-7.6-1.44V78.12h-.39a2.89,2.89,0,0,0-1.53.36,1.09,1.09,0,0,0-.59,1,.92.92,0,0,0,.3.7,1,1,0,0,0,.71.29A2.39,2.39,0,0,0,401.06,79.77Zm.17.63a3.06,3.06,0,0,1-2,.95,1.84,1.84,0,0,1-1.31-.49,1.65,1.65,0,0,1-.52-1.25,1.81,1.81,0,0,1,.87-1.61,4.75,4.75,0,0,1,2.52-.56h.27v-.76a1,1,0,0,0-1.14-1.11,4.3,4.3,0,0,0-2,.56v-.95a5.78,5.78,0,0,1,2.18-.48,2.23,2.23,0,0,1,1.58.48,2,2,0,0,1,.5,1.5v2.88c0,.66.21,1,.61,1l.23,0,.08.63a1.92,1.92,0,0,1-.87.19C401.72,81.35,401.38,81,401.23,80.4Zm-8.14.08c1.22,0,1.83-.82,1.83-2.47s-.6-2.44-1.81-2.44-1.81.82-1.81,2.45S391.9,80.48,393.09,80.48Zm0,.87a2.79,2.79,0,0,1-2.18-.9,4,4,0,0,1,0-4.86,3.21,3.21,0,0,1,4.44,0,4,4,0,0,1,0,4.87A2.9,2.9,0,0,1,393.07,81.35Zm-8.93-.14V72.53h1.24v7.76h3.9v.92Z" transform="translate(-14.5 -10.04)"/><path d="M250.42,113h-.29c-.59,0-.89-.31-.89-.94a3.88,3.88,0,0,1,.09-.82l.11-.51a4.92,4.92,0,0,0,.11-1,1.59,1.59,0,0,0-.56-1.26,2.54,2.54,0,0,0-1.54-.54v.87h.17a1,1,0,0,1,.66.21.65.65,0,0,1,.26.52,3.58,3.58,0,0,1-.07.55l-.1.6a5,5,0,0,0-.07.92,2.29,2.29,0,0,0,.86,1.82,2.33,2.33,0,0,0-.86,1.84,4.88,4.88,0,0,0,.07.91l.1.6a3.66,3.66,0,0,1,.07.56.63.63,0,0,1-.26.51,1,1,0,0,1-.66.21h-.17v.87a2.52,2.52,0,0,0,1.54-.54,1.61,1.61,0,0,0,.56-1.27,4.65,4.65,0,0,0-.11-1l-.11-.51a4,4,0,0,1-.09-.84c0-.62.3-.93.89-.93h.29Zm-9.55,4.2v-.87h1.74v-6.85l-1.74.44V109l2.9-.72v8h1.73v.87Zm-7,0v-3h-3v-.87h3v-3h.87v3h3v.87h-3v3Zm-9-.71a2.44,2.44,0,0,0,2.06-1,4.36,4.36,0,0,0,.73-2.7,4.29,4.29,0,0,0-.73-2.66,2.62,2.62,0,0,0-4,0,4.3,4.3,0,0,0-.73,2.67,4.41,4.41,0,0,0,.72,2.67A2.34,2.34,0,0,0,224.83,116.5Zm4.19,2.44a14,14,0,0,1-3.42-1.58,8.47,8.47,0,0,1-.85.06,3.58,3.58,0,0,1-2.84-1.26,4.86,4.86,0,0,1-1.09-3.29,4.76,4.76,0,0,1,1.1-3.31,4.13,4.13,0,0,1,5.9,0,4.81,4.81,0,0,1,1.1,3.33A4.23,4.23,0,0,1,226.7,117a13.53,13.53,0,0,0,3.1.94ZM212,113.09v-.87h6.94v.87Zm0,2.16v-.86h6.94v.86Zm-6,1.25a2.44,2.44,0,0,0,2.06-1,4.42,4.42,0,0,0,.73-2.7,4.36,4.36,0,0,0-.73-2.66,2.62,2.62,0,0,0-4,0,4.3,4.3,0,0,0-.73,2.67,4.41,4.41,0,0,0,.72,2.67A2.34,2.34,0,0,0,206,116.5Zm4.19,2.44a14,14,0,0,1-3.42-1.58c-.37,0-.66.06-.85.06a3.58,3.58,0,0,1-2.84-1.26,4.86,4.86,0,0,1-1.1-3.29,4.77,4.77,0,0,1,1.11-3.31,4.13,4.13,0,0,1,5.9,0,4.81,4.81,0,0,1,1.1,3.33,4.23,4.23,0,0,1-2.22,4.13,13.53,13.53,0,0,0,3.1.94ZM197.59,113h.29c.59,0,.89-.31.89-.94a3.88,3.88,0,0,0-.09-.82l-.11-.51a4.29,4.29,0,0,1-.11-1,1.56,1.56,0,0,1,.56-1.26,2.51,2.51,0,0,1,1.53-.54v.87h-.16a1,1,0,0,0-.66.21.63.63,0,0,0-.27.52,4.1,4.1,0,0,0,.08.55l.1.6a6.17,6.17,0,0,1,.06.92,2.26,2.26,0,0,1-.86,1.82,2.3,2.3,0,0,1,.86,1.84,6,6,0,0,1-.06.91l-.1.6a4.17,4.17,0,0,0-.08.56.61.61,0,0,0,.27.51,1,1,0,0,0,.66.21h.16v.87a2.54,2.54,0,0,1-1.54-.54,1.6,1.6,0,0,1-.55-1.27,4.07,4.07,0,0,1,.11-1l.11-.51a4,4,0,0,0,.09-.84c0-.62-.3-.93-.89-.93h-.29Z" transform="translate(-14.5 -10.04)"/><ellipse class="cls-3" cx="556.5" cy="66.63" rx="40" ry="20"/><path d="M589.08,76.36a2.65,2.65,0,0,0-1.7-.79c-1.11,0-1.66.84-1.66,2.54,0,1.48.49,2.23,1.48,2.23a2.58,2.58,0,0,0,1.88-1Zm0,4.85V80A2.28,2.28,0,0,1,587,81.35a2.17,2.17,0,0,1-1.81-.84,3.59,3.59,0,0,1-.66-2.29,4,4,0,0,1,.75-2.55,2.34,2.34,0,0,1,2-1,2.37,2.37,0,0,1,1.88.87V72h1.16v9.26Zm-7.6-1.44V78.12h-.39a3,3,0,0,0-1.54.36,1.08,1.08,0,0,0-.58,1,1,1,0,0,0,.29.7,1,1,0,0,0,.72.29A2.39,2.39,0,0,0,581.48,79.77Zm.17.63a3.06,3.06,0,0,1-2,.95,1.8,1.8,0,0,1-1.31-.49,1.65,1.65,0,0,1-.53-1.25,1.82,1.82,0,0,1,.88-1.61,4.69,4.69,0,0,1,2.51-.56h.28v-.76a1,1,0,0,0-1.14-1.11,4.26,4.26,0,0,0-2,.56v-.95a5.71,5.71,0,0,1,2.18-.48,2.2,2.2,0,0,1,1.57.48,2,2,0,0,1,.51,1.5v2.88c0,.66.2,1,.61,1l.22,0,.08.63a1.9,1.9,0,0,1-.86.19C582.14,81.35,581.79,81,581.65,80.4Zm-8.15.08c1.22,0,1.84-.82,1.84-2.47s-.61-2.44-1.81-2.44-1.81.82-1.81,2.45S572.31,80.48,573.5,80.48Zm0,.87a2.81,2.81,0,0,1-2.18-.9,3.51,3.51,0,0,1-.81-2.43,3.45,3.45,0,0,1,.82-2.43,3.2,3.2,0,0,1,4.43,0,4,4,0,0,1,0,4.87A2.94,2.94,0,0,1,573.48,81.35Zm-6-.14V72h1.15v9.26Zm-7.45,0V74.84h1.15V76a2.68,2.68,0,0,1,2.24-1.34,1.73,1.73,0,0,1,1.32.53,2,2,0,0,1,.49,1.4v4.58h-1.15V77a1.83,1.83,0,0,0-.21-1,.78.78,0,0,0-.69-.3,2.55,2.55,0,0,0-2,1.39v4.12Zm-8.42-8.68h1.23V78a3,3,0,0,0,.48,1.9,1.89,1.89,0,0,0,1.54.59,1.71,1.71,0,0,0,1.46-.56,3.13,3.13,0,0,0,.43-1.89V72.53h1.08V78a3.77,3.77,0,0,1-.73,2.58,3,3,0,0,1-2.32.81,3.13,3.13,0,0,1-2.4-.84,3.73,3.73,0,0,1-.77-2.59Z" transform="translate(-14.5 -10.04)"/><path d="M449.22,112h-.29c-.59,0-.89-.31-.89-.94a3.88,3.88,0,0,1,.09-.82l.11-.51a4.29,4.29,0,0,0,.11-1,1.56,1.56,0,0,0-.56-1.26,2.51,2.51,0,0,0-1.53-.54v.87h.16a1,1,0,0,1,.66.21.63.63,0,0,1,.27.52,4.1,4.1,0,0,1-.08.55l-.1.6a6.17,6.17,0,0,0-.06.92,2.26,2.26,0,0,0,.86,1.82,2.3,2.3,0,0,0-.86,1.84,6,6,0,0,0,.06.91l.1.6a4.17,4.17,0,0,1,.08.56.61.61,0,0,1-.27.51,1,1,0,0,1-.66.21h-.16v.87a2.54,2.54,0,0,0,1.54-.54,1.6,1.6,0,0,0,.55-1.27,4.07,4.07,0,0,0-.11-1l-.11-.51a4,4,0,0,1-.09-.84c0-.62.3-.93.89-.93h.29Zm-9.54,4.2v-.87h1.73v-6.85l-1.73.44V108l2.89-.72v8h1.74v.87Zm-7.88-3v-.87H437v.87Zm-5.56,2.33a2.44,2.44,0,0,0,2.05-1,4.36,4.36,0,0,0,.73-2.7,4.29,4.29,0,0,0-.73-2.66,2.62,2.62,0,0,0-4,0,4.3,4.3,0,0,0-.73,2.67,4.41,4.41,0,0,0,.72,2.67A2.35,2.35,0,0,0,426.24,115.5Zm4.18,2.44a14,14,0,0,1-3.42-1.58,8.47,8.47,0,0,1-.85.06,3.58,3.58,0,0,1-2.84-1.26,4.86,4.86,0,0,1-1.09-3.29,4.76,4.76,0,0,1,1.1-3.31,4.13,4.13,0,0,1,5.9,0,4.82,4.82,0,0,1,1.11,3.33A4.23,4.23,0,0,1,428.1,116a13.53,13.53,0,0,0,3.1.94Zm-17.05-5.85v-.87h6.94v.87Zm0,2.16v-.86h6.94v.86Zm-6,1.25a2.44,2.44,0,0,0,2.06-1,4.36,4.36,0,0,0,.73-2.7,4.29,4.29,0,0,0-.73-2.66,2.62,2.62,0,0,0-4,0,4.3,4.3,0,0,0-.73,2.67,4.41,4.41,0,0,0,.72,2.67A2.34,2.34,0,0,0,407.37,115.5Zm4.19,2.44a14,14,0,0,1-3.42-1.58,8.47,8.47,0,0,1-.85.06,3.58,3.58,0,0,1-2.84-1.26,4.86,4.86,0,0,1-1.1-3.29,4.77,4.77,0,0,1,1.11-3.31,4.13,4.13,0,0,1,5.9,0,4.81,4.81,0,0,1,1.1,3.33,4.23,4.23,0,0,1-2.22,4.13,13.53,13.53,0,0,0,3.1.94Zm-15.24.15v-.44c.38-.1.57-.55.57-1.33v-.11h-.57v-1.45h1.45V116C397.77,117.3,397.29,118,396.32,118.09Zm-5.91.43,1-2.31L389,109.84h1.24l1.83,4.79,1.94-4.79h1.09l-3.47,8.68Zm-4.8-2.17a6.34,6.34,0,0,1-1.93-.37v-1.06a4.5,4.5,0,0,0,2,.56,1.26,1.26,0,0,0,.83-.27.82.82,0,0,0,.33-.67c0-.39-.31-.72-.92-1l-.68-.28c-1-.42-1.49-1-1.49-1.79a1.6,1.6,0,0,1,.59-1.31,2.47,2.47,0,0,1,1.61-.48,7.19,7.19,0,0,1,1.32.15l.24,0v1a5.38,5.38,0,0,0-1.53-.29c-.75,0-1.12.27-1.12.81,0,.34.28.64.85.88l.55.23a3.87,3.87,0,0,1,1.34.84,1.62,1.62,0,0,1,.39,1.11,1.7,1.7,0,0,1-.66,1.37A2.59,2.59,0,0,1,385.61,116.35Zm-5.16-.14V115a2.67,2.67,0,0,1-2.23,1.34,1.73,1.73,0,0,1-1.33-.52,2,2,0,0,1-.49-1.42v-4.57h1.16V114a1.84,1.84,0,0,0,.2,1,.8.8,0,0,0,.7.31,2.56,2.56,0,0,0,2-1.39v-4.13h1.15v6.37Zm-9.7-4.87h.4a2.43,2.43,0,0,0,1.52-.42,1.42,1.42,0,0,0,.54-1.19c0-.85-.66-1.28-2-1.28h-.48Zm0,4H371a5.7,5.7,0,0,0,1.76-.17,1.21,1.21,0,0,0,.76-1.2,1.56,1.56,0,0,0-.69-1.29,2.84,2.84,0,0,0-1.73-.51h-.35Zm-1.22.92v-8.68h2.25a3.41,3.41,0,0,1,2,.5,1.62,1.62,0,0,1,.69,1.41,2.34,2.34,0,0,1-1.78,2.25c1.42.43,2.13,1.21,2.13,2.35a2,2,0,0,1-.7,1.61,3.23,3.23,0,0,1-2,.56Zm-9.35-4.12v-.87h6.93v.87Zm0,2.16v-.86h6.93v.86Zm-10.52,2v-8.68h1.7l2.41,6.71,2.47-6.71h1.52v8.68h-1.15v-7.06l-2.39,6.48H353l-2.32-6.5v7.08Zm-4.88-4.2h.29c.6,0,.89-.31.89-.94a3.88,3.88,0,0,0-.09-.82l-.11-.51a4.92,4.92,0,0,1-.11-1,1.59,1.59,0,0,1,.56-1.26,2.54,2.54,0,0,1,1.54-.54v.87h-.17a1,1,0,0,0-.66.21.65.65,0,0,0-.26.52,2.89,2.89,0,0,0,.08.55l.09.6a5,5,0,0,1,.07.92,2.29,2.29,0,0,1-.86,1.82,2.33,2.33,0,0,1,.86,1.84,4.88,4.88,0,0,1-.07.91l-.09.6a3,3,0,0,0-.08.56.61.61,0,0,0,.27.51,1,1,0,0,0,.65.21h.17v.87a2.52,2.52,0,0,1-1.54-.54,1.61,1.61,0,0,1-.56-1.27,4.65,4.65,0,0,1,.11-1l.11-.51a4,4,0,0,0,.09-.84c0-.62-.29-.93-.89-.93h-.29Z" transform="translate(-14.5 -10.04)"/><path d="M595.28,112H595c-.59,0-.89-.31-.89-.94a3.88,3.88,0,0,1,.09-.82l.11-.51a4.29,4.29,0,0,0,.11-1,1.56,1.56,0,0,0-.56-1.26,2.51,2.51,0,0,0-1.53-.54v.87h.16a1,1,0,0,1,.66.21.63.63,0,0,1,.27.52,4.1,4.1,0,0,1-.08.55l-.1.6a6.17,6.17,0,0,0-.06.92,2.26,2.26,0,0,0,.86,1.82,2.3,2.3,0,0,0-.86,1.84,6,6,0,0,0,.06.91l.1.6a4.17,4.17,0,0,1,.08.56.61.61,0,0,1-.27.51,1,1,0,0,1-.66.21h-.16v.87a2.54,2.54,0,0,0,1.54-.54,1.6,1.6,0,0,0,.55-1.27,4.07,4.07,0,0,0-.11-1l-.11-.51a4,4,0,0,1-.09-.84c0-.62.3-.93.89-.93h.29Zm-8.57.33h2.81c0-1.19-.44-1.78-1.32-1.78S586.82,111.15,586.71,112.34Zm3.94,3.66a7.13,7.13,0,0,1-2,.35,3,3,0,0,1-2.3-.93,3.4,3.4,0,0,1-.89-2.43,3.57,3.57,0,0,1,.79-2.37,2.49,2.49,0,0,1,2-.92,2.1,2.1,0,0,1,1.78.82,3.74,3.74,0,0,1,.63,2.33v.36h-4c.17,1.51.91,2.26,2.22,2.26a5.48,5.48,0,0,0,1.77-.38Zm-8.13.21V107h1.15v9.26Zm-3.47-4.85a2.63,2.63,0,0,0-1.7-.79c-1.1,0-1.66.84-1.66,2.54,0,1.48.5,2.23,1.48,2.23a2.56,2.56,0,0,0,1.88-1Zm0,4.85V115a2.27,2.27,0,0,1-2.12,1.34,2.17,2.17,0,0,1-1.81-.84,3.59,3.59,0,0,1-.66-2.29,4,4,0,0,1,.75-2.55,2.47,2.47,0,0,1,3.84-.1V107h1.16v9.26Zm-7.58,0v-8.68h1.23v8.68Zm-9.35-4.12v-.87h6.93v.87Zm0,2.16v-.86h6.93v.86Zm-10.52,2v-8.68h1.7l2.41,6.71,2.47-6.71h1.52v8.68h-1.15v-7.06l-2.39,6.48H555l-2.32-6.5v7.08Zm-4.88-4.2H547c.6,0,.89-.31.89-.94a3.88,3.88,0,0,0-.09-.82l-.11-.51a4.92,4.92,0,0,1-.11-1,1.59,1.59,0,0,1,.56-1.26,2.54,2.54,0,0,1,1.54-.54v.87h-.16a1.05,1.05,0,0,0-.67.21.65.65,0,0,0-.26.52,2.89,2.89,0,0,0,.08.55l.1.6a6.17,6.17,0,0,1,.06.92,2.29,2.29,0,0,1-.86,1.82,2.33,2.33,0,0,1,.86,1.84,6,6,0,0,1-.06.91l-.1.6a3,3,0,0,0-.08.56.61.61,0,0,0,.27.51,1,1,0,0,0,.66.21h.16v.87a2.52,2.52,0,0,1-1.54-.54,1.61,1.61,0,0,1-.56-1.27,4.65,4.65,0,0,1,.11-1l.11-.51a4,4,0,0,0,.09-.84c0-.62-.29-.93-.89-.93h-.29Z" transform="translate(-14.5 -10.04)"/><line class="cls-3" x1="105.5" y1="67.29" x2="160.49" y2="66.94"/><polygon points="168.49 66.89 156.46 61.96 159.49 66.95 156.53 71.96 168.49 66.89"/><polyline class="cls-3" points="231.84 50.37 232.99 46.67 233.5 41.63 232.99 36.59 231.54 31.9 229.23 27.65 226.18 23.95 222.48 20.9 218.23 18.59 213.54 17.14 208.5 16.63 203.46 17.14 198.77 18.59 194.52 20.9 190.82 23.95 187.77 27.65 185.46 31.9 184.01 36.59 183.5 41.63 183.59 42.53 183.62 42.62"/><polygon points="185.18 50.47 187.75 37.73 183.43 41.64 177.94 39.67 185.18 50.47"/><g class="cls-4"><path d="M225.06,17.82a1.86,1.86,0,0,1-1.37-.5,2,2,0,0,1-.49-1.41V12.18h-.8v-.87h.8V10.15l1.16-.11v1.27H226v.87h-1.66V15.7c0,.84.35,1.25,1.07,1.25a2.51,2.51,0,0,0,.56-.07v.79A3.5,3.5,0,0,1,225.06,17.82Z" transform="translate(-14.5 -10.04)"/><path d="M229.55,21.48V20.1h-.32a2.45,2.45,0,0,0-1.28.3.92.92,0,0,0-.49.79.82.82,0,0,0,.25.59.81.81,0,0,0,.59.24A2,2,0,0,0,229.55,21.48Zm.15.52a2.52,2.52,0,0,1-1.67.79,1.49,1.49,0,0,1-1.09-.41,1.37,1.37,0,0,1-.44-1,1.51,1.51,0,0,1,.73-1.34,3.94,3.94,0,0,1,2.1-.46h.22V18.9a.82.82,0,0,0-.94-.92,3.56,3.56,0,0,0-1.65.46v-.79a4.77,4.77,0,0,1,1.82-.4,1.87,1.87,0,0,1,1.31.4,1.62,1.62,0,0,1,.43,1.25v2.4c0,.55.17.83.5.83l.19,0,.07.53a1.72,1.72,0,0,1-.72.15C230.11,22.79,229.82,22.53,229.7,22Z" transform="translate(-14.5 -10.04)"/></g><line class="cls-3" x1="248.47" y1="66.63" x2="334.48" y2="66.63"/><polygon points="342.48 66.63 330.48 61.63 333.48 66.63 330.48 71.63 342.48 66.63"/><g class="cls-5"><path d="M327.3,69.61v.8a6,6,0,0,0,2-2.34,7.1,7.1,0,0,0,0-6.31,5.9,5.9,0,0,0-2-2.34v.8a5.47,5.47,0,0,1,1.23,2,9.89,9.89,0,0,1,0,5.36A5.59,5.59,0,0,1,327.3,69.61Zm-5.24-4.8h2.81c0-1.19-.44-1.78-1.32-1.78S322.17,63.62,322.06,64.81ZM326,68.47a7.13,7.13,0,0,1-2,.35,3,3,0,0,1-2.3-.94,3.37,3.37,0,0,1-.89-2.42,3.57,3.57,0,0,1,.79-2.37,2.48,2.48,0,0,1,2-.93,2.13,2.13,0,0,1,1.78.82,3.79,3.79,0,0,1,.63,2.34v.35h-4c.17,1.51.91,2.27,2.22,2.27a5.27,5.27,0,0,0,1.77-.39Zm-8.13.2V59.42H319v9.25Zm-3.47-4.84a2.63,2.63,0,0,0-1.7-.79c-1.1,0-1.66.84-1.66,2.53,0,1.49.5,2.24,1.48,2.24a2.56,2.56,0,0,0,1.88-1Zm0,4.84V67.48a2.27,2.27,0,0,1-2.12,1.34,2.17,2.17,0,0,1-1.81-.84,3.61,3.61,0,0,1-.66-2.29,4,4,0,0,1,.75-2.55,2.47,2.47,0,0,1,3.84-.1V59.42h1.16v9.25Zm-7.58,0V60h1.23v8.67Zm-5.95-2v.6h-5v-.61Zm0-1.34V66h-5v-.63Zm0-1.34v.62h-5V64ZM282,68.67V60h1.71l2.4,6.71L288.6,60h1.52v8.67H289V61.62l-2.39,6.47H285.4l-2.32-6.49v7.07Zm-1.55.94v.8a6.13,6.13,0,0,1-2-2.34,7.1,7.1,0,0,1,0-6.31,6,6,0,0,1,2-2.34v.8a5.61,5.61,0,0,0-1.23,2,10.16,10.16,0,0,0,0,5.36A5.73,5.73,0,0,0,280.47,69.61Z" transform="translate(-14.5 -10.04)"/></g><line class="cls-3" x1="422.47" y1="66.63" x2="508.48" y2="66.63"/><polygon points="516.48 66.63 504.48 61.63 507.48 66.63 504.48 71.63 516.48 66.63"/><g class="cls-6"><path d="M480.06,66.82a1.86,1.86,0,0,1-1.37-.5,2,2,0,0,1-.49-1.41V61.18h-.8v-.87h.8V59.15l1.16-.11v1.27H481v.87h-1.66V64.7c0,.84.35,1.25,1.07,1.25a2.51,2.51,0,0,0,.56-.07v.79A3.5,3.5,0,0,1,480.06,66.82Z" transform="translate(-14.5 -10.04)"/><path d="M483.37,71.79a5.38,5.38,0,0,1-1.6-.3V70.6a3.66,3.66,0,0,0,1.64.47,1.08,1.08,0,0,0,.69-.22.71.71,0,0,0,.27-.56c0-.33-.26-.6-.77-.82l-.56-.24c-.83-.34-1.24-.84-1.24-1.49a1.33,1.33,0,0,1,.49-1.09,2.08,2.08,0,0,1,1.34-.4,6.29,6.29,0,0,1,1.1.12l.2,0v.8a4.68,4.68,0,0,0-1.28-.23c-.62,0-.93.22-.93.67,0,.29.24.53.71.73l.46.2a3,3,0,0,1,1.11.7,1.31,1.31,0,0,1,.33.92,1.42,1.42,0,0,1-.55,1.15A2.22,2.22,0,0,1,483.37,71.79Z" transform="translate(-14.5 -10.04)"/></g><polyline class="cls-3" points="537.49 49.05 534.75 46.72 523.88 38.9 513 32.51 502.12 27.53 491.25 23.97 480.38 21.84 469.5 21.13 458.62 21.84 447.75 23.97 436.88 27.53 426 32.51 415.12 38.9 407.83 44.15 407.75 44.21"/><polygon points="401.43 49.11 413.98 45.72 408.55 43.6 407.85 37.81 401.43 49.11"/><path d="M498.94,24.81v.8a6.17,6.17,0,0,0,2-2.35,7.07,7.07,0,0,0,0-6.3,6.06,6.06,0,0,0-2-2.34v.8a5.75,5.75,0,0,1,1.23,2,8.56,8.56,0,0,1,.36,2.68,8.56,8.56,0,0,1-.36,2.68A5.88,5.88,0,0,1,498.94,24.81Zm-4.25-1.59c1.23,0,1.84-1.24,1.84-3.73s-.61-3.64-1.81-3.64-1.81,1.23-1.81,3.68S493.5,23.22,494.69,23.22Zm0,.87a2.5,2.5,0,0,1-2.17-1.26,6,6,0,0,1-.83-3.3,5.81,5.81,0,0,1,.84-3.3,2.56,2.56,0,0,1,4.4,0,5.86,5.86,0,0,1,.83,3.28,6,6,0,0,1-.83,3.33A2.59,2.59,0,0,1,494.68,24.09Zm-12-.22,6.94-3.47-6.94-3.47v1l5,2.5-5,2.5Zm-6-.7a2.42,2.42,0,0,0,2.05-1,4.32,4.32,0,0,0,.73-2.7,4.26,4.26,0,0,0-.73-2.65,2.61,2.61,0,0,0-4,0,4.36,4.36,0,0,0-.73,2.66,4.42,4.42,0,0,0,.72,2.68A2.37,2.37,0,0,0,476.69,23.17Zm4.19,2.44A14.25,14.25,0,0,1,477.45,24a8.47,8.47,0,0,1-.85.06,3.55,3.55,0,0,1-2.84-1.27,4.83,4.83,0,0,1-1.09-3.28,4.84,4.84,0,0,1,1.1-3.32,4.13,4.13,0,0,1,5.9,0,4.82,4.82,0,0,1,1.11,3.33,4.24,4.24,0,0,1-2.22,4.14,13.23,13.23,0,0,0,3.1.94Zm-9.26-.8v.8a6.06,6.06,0,0,1-2-2.35,7.07,7.07,0,0,1,0-6.3,6,6,0,0,1,2-2.34v.8a5.58,5.58,0,0,0-1.22,2,8.25,8.25,0,0,0-.37,2.68,8.25,8.25,0,0,0,.37,2.68A5.7,5.7,0,0,0,471.62,24.81Z" transform="translate(-14.5 -10.04)"/></g></g></g></svg>