<?xml version="1.0" encoding="utf-8"?>
<svg xmlns="http://www.w3.org/2000/svg" xmlns:xlink="http://www.w3.org/1999/xlink" width="600" height="400" viewBox="0 0 2400 1600">
<defs>
  <clipPath id="clip4000">
    <rect x="0" y="0" width="2400" height="1600"/>
  </clipPath>
</defs>
<path clip-path="url(#clip4000)" d="
M0 1600 L2400 1600 L2400 0 L0 0  Z
  " fill="#ffffff" fill-rule="evenodd" fill-opacity="1"/>
<defs>
  <clipPath id="clip4001">
    <rect x="480" y="0" width="1681" height="1600"/>
  </clipPath>
</defs>
<path clip-path="url(#clip4000)" d="
M202.373 1425.62 L2352.76 1425.62 L2352.76 121.675 L202.373 121.675  Z
  " fill="#ffffff" fill-rule="evenodd" fill-opacity="1"/>
<defs>
  <clipPath id="clip4002">
    <rect x="202" y="121" width="2151" height="1305"/>
  </clipPath>
</defs>
<polyline clip-path="url(#clip4002)" style="stroke:#000000; stroke-width:2; stroke-opacity:0.1; fill:none" points="
  263.233,1425.62 263.233,121.675 
  "/>
<polyline clip-path="url(#clip4002)" style="stroke:#000000; stroke-width:2; stroke-opacity:0.1; fill:none" points="
  770.462,1425.62 770.462,121.675 
  "/>
<polyline clip-path="url(#clip4002)" style="stroke:#000000; stroke-width:2; stroke-opacity:0.1; fill:none" points="
  1277.69,1425.62 1277.69,121.675 
  "/>
<polyline clip-path="url(#clip4002)" style="stroke:#000000; stroke-width:2; stroke-opacity:0.1; fill:none" points="
  1784.92,1425.62 1784.92,121.675 
  "/>
<polyline clip-path="url(#clip4002)" style="stroke:#000000; stroke-width:2; stroke-opacity:0.1; fill:none" points="
  2292.15,1425.62 2292.15,121.675 
  "/>
<polyline clip-path="url(#clip4002)" style="stroke:#000000; stroke-width:2; stroke-opacity:0.1; fill:none" points="
  202.373,1388.71 2352.76,1388.71 
  "/>
<polyline clip-path="url(#clip4002)" style="stroke:#000000; stroke-width:2; stroke-opacity:0.1; fill:none" points="
  202.373,1109.14 2352.76,1109.14 
  "/>
<polyline clip-path="url(#clip4002)" style="stroke:#000000; stroke-width:2; stroke-opacity:0.1; fill:none" points="
  202.373,829.562 2352.76,829.562 
  "/>
<polyline clip-path="url(#clip4002)" style="stroke:#000000; stroke-width:2; stroke-opacity:0.1; fill:none" points="
  202.373,549.986 2352.76,549.986 
  "/>
<polyline clip-path="url(#clip4002)" style="stroke:#000000; stroke-width:2; stroke-opacity:0.1; fill:none" points="
  202.373,270.41 2352.76,270.41 
  "/>
<polyline clip-path="url(#clip4000)" style="stroke:#000000; stroke-width:4; stroke-opacity:1; fill:none" points="
  202.373,1425.62 2352.76,1425.62 
  "/>
<polyline clip-path="url(#clip4000)" style="stroke:#000000; stroke-width:4; stroke-opacity:1; fill:none" points="
  202.373,1425.62 202.373,121.675 
  "/>
<polyline clip-path="url(#clip4000)" style="stroke:#000000; stroke-width:4; stroke-opacity:1; fill:none" points="
  263.233,1425.62 263.233,1406.06 
  "/>
<polyline clip-path="url(#clip4000)" style="stroke:#000000; stroke-width:4; stroke-opacity:1; fill:none" points="
  770.462,1425.62 770.462,1406.06 
  "/>
<polyline clip-path="url(#clip4000)" style="stroke:#000000; stroke-width:4; stroke-opacity:1; fill:none" points="
  1277.69,1425.62 1277.69,1406.06 
  "/>
<polyline clip-path="url(#clip4000)" style="stroke:#000000; stroke-width:4; stroke-opacity:1; fill:none" points="
  1784.92,1425.62 1784.92,1406.06 
  "/>
<polyline clip-path="url(#clip4000)" style="stroke:#000000; stroke-width:4; stroke-opacity:1; fill:none" points="
  2292.15,1425.62 2292.15,1406.06 
  "/>
<polyline clip-path="url(#clip4000)" style="stroke:#000000; stroke-width:4; stroke-opacity:1; fill:none" points="
  202.373,1388.71 234.629,1388.71 
  "/>
<polyline clip-path="url(#clip4000)" style="stroke:#000000; stroke-width:4; stroke-opacity:1; fill:none" points="
  202.373,1109.14 234.629,1109.14 
  "/>
<polyline clip-path="url(#clip4000)" style="stroke:#000000; stroke-width:4; stroke-opacity:1; fill:none" points="
  202.373,829.562 234.629,829.562 
  "/>
<polyline clip-path="url(#clip4000)" style="stroke:#000000; stroke-width:4; stroke-opacity:1; fill:none" points="
  202.373,549.986 234.629,549.986 
  "/>
<polyline clip-path="url(#clip4000)" style="stroke:#000000; stroke-width:4; stroke-opacity:1; fill:none" points="
  202.373,270.41 234.629,270.41 
  "/>
<g clip-path="url(#clip4000)">
<text style="fill:#000000; fill-opacity:1; font-family:Arial,Helvetica Neue,Helvetica,sans-serif; font-size:48px; text-anchor:middle;" transform="rotate(0, 263.233, 1479.62)" x="263.233" y="1479.62">0</text>
</g>
<g clip-path="url(#clip4000)">
<text style="fill:#000000; fill-opacity:1; font-family:Arial,Helvetica Neue,Helvetica,sans-serif; font-size:48px; text-anchor:middle;" transform="rotate(0, 770.462, 1479.62)" x="770.462" y="1479.62">250</text>
</g>
<g clip-path="url(#clip4000)">
<text style="fill:#000000; fill-opacity:1; font-family:Arial,Helvetica Neue,Helvetica,sans-serif; font-size:48px; text-anchor:middle;" transform="rotate(0, 1277.69, 1479.62)" x="1277.69" y="1479.62">500</text>
</g>
<g clip-path="url(#clip4000)">
<text style="fill:#000000; fill-opacity:1; font-family:Arial,Helvetica Neue,Helvetica,sans-serif; font-size:48px; text-anchor:middle;" transform="rotate(0, 1784.92, 1479.62)" x="1784.92" y="1479.62">750</text>
</g>
<g clip-path="url(#clip4000)">
<text style="fill:#000000; fill-opacity:1; font-family:Arial,Helvetica Neue,Helvetica,sans-serif; font-size:48px; text-anchor:middle;" transform="rotate(0, 2292.15, 1479.62)" x="2292.15" y="1479.62">1000</text>
</g>
<g clip-path="url(#clip4000)">
<text style="fill:#000000; fill-opacity:1; font-family:Arial,Helvetica Neue,Helvetica,sans-serif; font-size:48px; text-anchor:end;" transform="rotate(0, 178.373, 1406.21)" x="178.373" y="1406.21">0</text>
</g>
<g clip-path="url(#clip4000)">
<text style="fill:#000000; fill-opacity:1; font-family:Arial,Helvetica Neue,Helvetica,sans-serif; font-size:48px; text-anchor:end;" transform="rotate(0, 178.373, 1126.64)" x="178.373" y="1126.64">5</text>
</g>
<g clip-path="url(#clip4000)">
<text style="fill:#000000; fill-opacity:1; font-family:Arial,Helvetica Neue,Helvetica,sans-serif; font-size:48px; text-anchor:end;" transform="rotate(0, 178.373, 847.062)" x="178.373" y="847.062">10</text>
</g>
<g clip-path="url(#clip4000)">
<text style="fill:#000000; fill-opacity:1; font-family:Arial,Helvetica Neue,Helvetica,sans-serif; font-size:48px; text-anchor:end;" transform="rotate(0, 178.373, 567.486)" x="178.373" y="567.486">15</text>
</g>
<g clip-path="url(#clip4000)">
<text style="fill:#000000; fill-opacity:1; font-family:Arial,Helvetica Neue,Helvetica,sans-serif; font-size:48px; text-anchor:end;" transform="rotate(0, 178.373, 287.91)" x="178.373" y="287.91">20</text>
</g>
<g clip-path="url(#clip4000)">
<text style="fill:#000000; fill-opacity:1; font-family:Arial,Helvetica Neue,Helvetica,sans-serif; font-size:84px; text-anchor:middle;" transform="rotate(0, 1277.56, 73.2)" x="1277.56" y="73.2">In-Process-Inventory of Dice-Line</text>
</g>
<g clip-path="url(#clip4000)">
<text style="fill:#000000; fill-opacity:1; font-family:Arial,Helvetica Neue,Helvetica,sans-serif; font-size:66px; text-anchor:middle;" transform="rotate(0, 1277.56, 1559.48)" x="1277.56" y="1559.48">time</text>
</g>
<g clip-path="url(#clip4000)">
<text style="fill:#000000; fill-opacity:1; font-family:Arial,Helvetica Neue,Helvetica,sans-serif; font-size:66px; text-anchor:middle;" transform="rotate(-90, 89.2861, 773.647)" x="89.2861" y="773.647">Inventory</text>
</g>
<polyline clip-path="url(#clip4002)" style="stroke:#009af9; stroke-width:4; stroke-opacity:1; fill:none" points="
  263.233,1332.8 271.44,1276.88 273.582,1332.8 276.09,1276.88 277.237,1220.97 277.601,1276.88 279.06,1220.97 287.947,1165.05 290.263,1220.97 300.705,1165.05 
  302.791,1220.97 305.553,1165.05 308.36,1220.97 309.935,1276.88 311.911,1220.97 316.566,1165.05 316.99,1220.97 318.144,1165.05 323.603,1109.14 326.506,1165.05 
  329.153,1109.14 329.352,1165.05 336.248,1109.14 338.387,1165.05 340.776,1109.14 342.239,1053.22 347.488,1109.14 348.14,1053.22 354.421,997.308 355.952,1053.22 
  357.928,997.308 360.151,941.393 362.781,885.477 368.324,941.393 374.377,885.477 378.496,829.562 378.961,885.477 380.656,829.562 383.01,773.647 386.368,829.562 
  388.758,885.477 391.736,829.562 393.82,773.647 398.859,717.732 399.974,773.647 407.331,717.732 409.58,773.647 410.69,717.732 420.955,773.647 423.295,717.732 
  429.508,661.816 430.829,717.732 437.323,661.816 441.673,717.732 441.999,661.816 443.512,717.732 449.886,661.816 451.817,717.732 455.891,661.816 460.709,717.732 
  464.871,661.816 466.783,717.732 468.11,661.816 473.656,605.901 476.197,661.816 477.752,717.732 483.147,661.816 485.538,605.901 487.542,549.986 489.913,605.901 
  494.277,549.986 495.259,605.901 504.893,661.816 505.111,605.901 507.215,549.986 511.931,605.901 512.383,549.986 519.471,494.071 520.846,438.155 523.086,494.071 
  530.204,438.155 532.343,494.071 533.3,438.155 543.886,494.071 544.8,438.155 548.848,494.071 552.019,438.155 554.865,382.24 557.236,438.155 560.064,494.071 
  560.475,438.155 565.686,382.24 567.169,438.155 568.461,382.24 569.808,326.325 571.516,270.41 573.847,326.325 578.203,382.24 582.768,326.325 584.326,382.24 
  595.044,326.325 595.835,382.24 600.925,438.155 606.94,382.24 610.801,438.155 614.33,382.24 619.45,438.155 622.302,382.24 624.111,326.325 629.362,382.24 
  632.073,438.155 632.671,382.24 643.551,326.325 644.829,382.24 646.915,438.155 652.852,494.071 655.922,438.155 662.755,494.071 666.237,438.155 670.305,494.071 
  672.247,438.155 678.727,382.24 681.822,438.155 684.129,382.24 684.205,438.155 686.645,494.071 690.587,438.155 693.847,494.071 701.94,438.155 703.441,494.071 
  707.708,438.155 708.475,494.071 713.918,438.155 718.102,494.071 723.852,438.155 724.734,494.071 725.033,438.155 727.74,382.24 732.429,438.155 736.161,494.071 
  740.208,438.155 741.588,382.24 742.689,438.155 750.21,494.071 751.569,549.986 752.355,494.071 758.027,438.155 760.814,382.24 762.595,438.155 768.255,494.071 
  773.395,438.155 773.916,494.071 780.538,438.155 784.482,494.071 785.931,549.986 789.077,494.071 792.39,438.155 798.478,494.071 804.282,438.155 809.165,494.071 
  813.269,438.155 813.565,494.071 816.882,549.986 821.462,605.901 825.032,549.986 827.565,494.071 829.757,438.155 832.435,494.071 834.407,549.986 839.278,494.071 
  840.904,438.155 842,494.071 843.201,438.155 844.398,494.071 848.126,438.155 851.837,382.24 852.63,438.155 858.314,382.24 861.702,326.325 863.988,382.24 
  869.344,438.155 869.656,382.24 877.893,326.325 878.367,382.24 880.295,438.155 882.723,382.24 887.964,326.325 888.856,382.24 892.097,326.325 897.024,270.41 
  898.411,326.325 900.107,270.41 904.66,326.325 907.357,270.41 912.08,214.494 912.643,270.41 923.572,214.494 923.993,270.41 925.438,326.325 928.231,382.24 
  929.687,438.155 932.679,494.071 935.455,438.155 944.409,382.24 945.428,438.155 957.011,494.071 957.058,438.155 962.981,494.071 965.633,438.155 970.378,494.071 
  970.966,438.155 974.383,382.24 975.672,438.155 977.249,494.071 983.522,549.986 985.63,494.071 987.552,438.155 989.477,494.071 998.422,438.155 1000.22,494.071 
  1001.15,438.155 1008.22,382.24 1011.82,438.155 1019.23,382.24 1022.88,438.155 1026.59,494.071 1027.44,438.155 1035.76,494.071 1037.14,438.155 1040.88,382.24 
  1041.25,438.155 1043.17,494.071 1046.58,549.986 1052.43,494.071 1055,438.155 1057.92,494.071 1060.19,549.986 1062.59,605.901 1066.74,549.986 1070.93,494.071 
  1074.2,549.986 1078.04,605.901 1078.53,549.986 1080.78,494.071 1087.17,549.986 1090.89,605.901 1093.41,549.986 1096.26,494.071 1098.48,549.986 1105.74,605.901 
  1105.86,549.986 1111.67,494.071 1114.73,549.986 1115.91,494.071 1117.09,549.986 1123.11,494.071 1124.61,549.986 1132.08,494.071 1133.21,549.986 1134.64,605.901 
  1139.72,549.986 1141.58,605.901 1146.29,549.986 1152.63,605.901 1154.09,549.986 1159.24,494.071 1164.14,549.986 1170.88,494.071 1174.68,549.986 1183.98,494.071 
  1186.32,549.986 1191.71,494.071 1198.25,549.986 1201.02,494.071 1209.39,549.986 1210.25,494.071 1218.98,438.155 1221.63,494.071 1223.83,549.986 1227.54,494.071 
  1233.12,438.155 1234.5,382.24 1236.34,438.155 1238.84,382.24 1247.26,326.325 1247.36,382.24 1255.98,438.155 1258.67,382.24 1262.07,326.325 1263.95,382.24 
  1269.7,438.155 1270.75,382.24 1275.39,438.155 1280.28,494.071 1282.43,438.155 1288.91,494.071 1290.8,438.155 1296.76,382.24 1300.06,438.155 1304.32,494.071 
  1308.15,438.155 1312.39,494.071 1318.81,549.986 1319.74,494.071 1321.32,549.986 1323.95,605.901 1328.22,549.986 1329.67,605.901 1339.14,549.986 1340.11,605.901 
  1346.6,549.986 1350.42,494.071 1352.33,549.986 1361.23,494.071 1361.81,549.986 1370.5,605.901 1371.57,549.986 1373.63,494.071 1377.1,438.155 1380.39,382.24 
  1381.93,438.155 1389.56,382.24 1394.21,326.325 1394.96,382.24 1401.31,326.325 1404.74,270.41 1406.61,326.325 1413.89,270.41 1414.96,326.325 1418.07,382.24 
  1426.89,326.325 1427.65,382.24 1431.01,326.325 1432.33,270.41 1434.14,214.494 1437.27,158.579 1439.83,214.494 1444.36,270.41 1448.78,214.494 1451.75,270.41 
  1454.29,214.494 1461.71,270.41 1464.74,214.494 1465.62,270.41 1470.31,214.494 1474.77,270.41 1476.91,214.494 1483.63,270.41 1486.81,214.494 1491.99,270.41 
  1493.29,214.494 1495.39,270.41 1502.68,214.494 1505.14,270.41 1506.87,326.325 1510.03,382.24 1514.33,326.325 1519.64,382.24 1521.92,326.325 1525.61,382.24 
  1527.45,438.155 1529.06,382.24 1535.29,438.155 1541.5,382.24 1542.64,326.325 1547.04,382.24 1551.78,438.155 1552.74,382.24 1554.03,438.155 1555.58,494.071 
  1565.04,438.155 1568.56,494.071 1569.69,549.986 1577.88,494.071 1580.38,549.986 1582.31,605.901 1586.2,549.986 1593.64,605.901 1597.82,549.986 1601.85,605.901 
  1605.65,661.816 1609.26,605.901 1613.47,549.986 1615.1,605.901 1618.49,549.986 1621.11,494.071 1625.09,549.986 1625.54,494.071 1634.66,549.986 1634.88,494.071 
  1641.58,549.986 1642.46,494.071 1643.41,549.986 1647.21,605.901 1651.45,661.816 1652.5,605.901 1658.06,549.986 1664.63,605.901 1667.24,549.986 1669.46,494.071 
  1675,549.986 1677.35,494.071 1679.68,549.986 1683.28,494.071 1687.5,549.986 1695.6,494.071 1697.32,549.986 1701.01,605.901 1707.7,549.986 1707.73,605.901 
  1709.82,661.816 1715.73,605.901 1720.86,661.816 1722.4,605.901 1728.03,661.816 1732.48,605.901 1736.11,661.816 1741.38,605.901 1743.61,661.816 1750.38,605.901 
  1755.95,661.816 1759.06,717.732 1759.66,661.816 1768.52,717.732 1769.11,661.816 1777.75,717.732 1779.4,661.816 1789.52,605.901 1790.3,661.816 1796.44,717.732 
  1797.69,661.816 1798.87,717.732 1804.35,773.647 1804.65,717.732 1809.5,773.647 1816.77,717.732 1818.57,773.647 1820.88,717.732 1822.1,661.816 1829.25,605.901 
  1830.55,661.816 1840.07,605.901 1841.82,661.816 1847.8,605.901 1849.85,661.816 1857.44,605.901 1860.45,661.816 1863.06,717.732 1867.64,661.816 1869.95,717.732 
  1873.57,773.647 1876.24,717.732 1882.5,773.647 1884.71,717.732 1894.31,773.647 1897.42,717.732 1899.31,661.816 1905.83,717.732 1912.34,661.816 1914.68,717.732 
  1916.89,661.816 1919.58,717.732 1921.14,661.816 1921.46,717.732 1926.19,773.647 1930.36,717.732 1933.89,661.816 1936.36,605.901 1937.2,661.816 1941.44,717.732 
  1945.28,661.816 1948.85,717.732 1955.38,661.816 1961.31,717.732 1965.8,661.816 1972.32,717.732 1974.08,661.816 1982.13,717.732 1983.78,661.816 1989.25,605.901 
  1992.14,661.816 1995.88,605.901 1998.57,661.816 2001.35,605.901 2006.03,549.986 2010.13,494.071 2010.25,549.986 2012.05,494.071 2015.2,549.986 2020.03,494.071 
  2023.02,549.986 2027.04,605.901 2032.55,549.986 2036.76,605.901 2038.41,549.986 2040.12,494.071 2041.88,549.986 2047.94,605.901 2053.08,549.986 2056.7,605.901 
  2057.93,661.816 2064.07,717.732 2064.49,661.816 2067.98,717.732 2072.57,661.816 2074.54,605.901 2074.72,661.816 2082.93,717.732 2085.96,661.816 2091.68,717.732 
  2094.52,773.647 2096.75,829.562 2096.86,773.647 2101.24,829.562 2102.41,773.647 2107.43,829.562 2108.05,773.647 2109.88,829.562 2118.07,773.647 2120.54,829.562 
  2127.87,773.647 2130.92,717.732 2132.39,773.647 2132.4,717.732 2134.06,773.647 2137.81,717.732 2140.49,661.816 2146.65,717.732 2149.4,661.816 2155.61,717.732 
  2158.73,661.816 2160.07,605.901 2164.95,661.816 2169.83,605.901 2170.56,661.816 2172.47,605.901 2173.76,661.816 2174.84,605.901 2182.03,549.986 2182.03,605.901 
  2186.19,661.816 2192.54,717.732 2194.84,661.816 2197.71,605.901 2204.59,661.816 2205.9,605.901 2211.29,549.986 2215.16,605.901 2219.74,661.816 2222.19,717.732 
  2222.46,661.816 2229.78,717.732 2231.96,661.816 2234.92,717.732 2236.05,661.816 2239.67,605.901 2247.99,661.816 2248.1,605.901 2249.93,661.816 2256.77,605.901 
  2262.96,661.816 2266.71,605.901 2267.87,661.816 2270.84,605.901 2276.4,661.816 2278.83,717.732 2283.82,661.816 2287.28,717.732 2288.52,773.647 
  "/>
<polyline clip-path="url(#clip4002)" style="stroke:#e26f46; stroke-width:4; stroke-opacity:1; fill:none" points="
  263.233,1332.8 271.14,1388.71 273.582,1332.8 274.597,1388.71 277.601,1332.8 283.51,1388.71 290.263,1332.8 292.458,1388.71 302.791,1332.8 303.088,1388.71 
  308.36,1332.8 309.935,1276.88 315.437,1332.8 316.99,1276.88 321.92,1332.8 326.506,1276.88 326.617,1332.8 329.352,1276.88 329.425,1332.8 336.716,1388.71 
  338.387,1332.8 345.256,1388.71 347.488,1332.8 352.662,1388.71 355.952,1332.8 356.332,1388.71 368.324,1332.8 368.324,1388.71 378.961,1332.8 378.961,1388.71 
  386.368,1332.8 386.368,1388.71 388.758,1332.8 396.914,1388.71 399.974,1332.8 407.035,1388.71 409.58,1332.8 413.802,1388.71 420.955,1332.8 424.495,1388.71 
  430.829,1332.8 431.205,1388.71 441.673,1332.8 441.673,1388.71 443.512,1332.8 443.512,1388.71 451.817,1332.8 451.817,1388.71 460.709,1332.8 464.987,1388.71 
  466.783,1332.8 476.185,1388.71 476.197,1332.8 477.752,1276.88 482.252,1332.8 487.799,1388.71 489.913,1332.8 495.259,1276.88 500.914,1332.8 504.893,1276.88 
  508.203,1332.8 511.931,1276.88 515.593,1332.8 523.086,1276.88 528.256,1332.8 530.101,1388.71 532.343,1332.8 533.254,1388.71 543.886,1332.8 543.886,1388.71 
  548.848,1332.8 553.993,1388.71 557.236,1332.8 559.2,1388.71 560.064,1332.8 564.709,1388.71 567.169,1332.8 572.062,1388.71 573.847,1332.8 578.203,1276.88 
  584.326,1220.97 584.882,1276.88 595.835,1220.97 597.575,1276.88 600.925,1220.97 602.333,1276.88 607.278,1332.8 610.801,1276.88 611.007,1332.8 619.45,1276.88 
  621.111,1332.8 629.362,1276.88 632.073,1220.97 633.756,1276.88 640.015,1332.8 644.829,1276.88 646.915,1220.97 647.753,1276.88 649.563,1332.8 652.852,1276.88 
  654.634,1332.8 659.959,1388.71 662.755,1332.8 670.305,1276.88 670.86,1332.8 681.67,1388.71 681.822,1332.8 683.398,1388.71 684.205,1332.8 686.645,1276.88 
  693.847,1220.97 695.925,1276.88 700.401,1332.8 703.441,1276.88 708.475,1220.97 709.956,1276.88 713.803,1332.8 718.102,1276.88 722.131,1332.8 723.643,1388.71 
  724.734,1332.8 728.018,1388.71 732.429,1332.8 732.429,1388.71 736.161,1332.8 742.689,1276.88 744.397,1332.8 745.948,1388.71 750.21,1332.8 750.21,1388.71 
  751.569,1332.8 751.751,1388.71 762.595,1332.8 764.751,1388.71 768.255,1332.8 773.916,1276.88 777.412,1332.8 780.18,1388.71 784.482,1332.8 785.931,1276.88 
  792.687,1332.8 798.478,1276.88 803.111,1332.8 809.165,1276.88 810.946,1332.8 812.188,1388.71 813.565,1332.8 816.882,1276.88 821.462,1220.97 821.833,1276.88 
  823.796,1332.8 827.296,1388.71 832.435,1332.8 833.312,1388.71 834.407,1332.8 840.056,1388.71 842,1332.8 844.398,1276.88 850.505,1332.8 852.63,1276.88 
  854.106,1332.8 863.988,1276.88 866.791,1332.8 869.344,1276.88 877.661,1332.8 878.367,1276.88 880.295,1220.97 883.88,1276.88 888.639,1332.8 888.856,1276.88 
  898.411,1220.97 900.324,1276.88 904.216,1332.8 904.66,1276.88 906.709,1332.8 912.408,1388.71 912.643,1332.8 917.291,1388.71 923.993,1332.8 923.993,1388.71 
  925.438,1332.8 927.288,1388.71 928.231,1332.8 929.687,1276.88 930.888,1332.8 932.679,1276.88 940.768,1332.8 945.428,1276.88 949.331,1332.8 956.142,1388.71 
  957.011,1332.8 962.981,1276.88 963.036,1332.8 970.378,1276.88 975.164,1332.8 975.672,1276.88 977.249,1220.97 983.522,1165.05 986.989,1220.97 988.779,1276.88 
  989.477,1220.97 1000.22,1165.05 1000.85,1220.97 1011.82,1165.05 1013.53,1220.97 1019.55,1276.88 1022.88,1220.97 1026.59,1165.05 1028.14,1220.97 1032.5,1276.88 
  1035.76,1220.97 1041.25,1165.05 1043.17,1109.14 1043.66,1165.05 1046.58,1109.14 1053.97,1165.05 1056.24,1220.97 1057.92,1165.05 1060.19,1109.14 1060.47,1165.05 
  1062.59,1220.97 1062.59,1165.05 1068.59,1220.97 1074.2,1165.05 1078.04,1109.14 1078.57,1165.05 1087.17,1109.14 1087.68,1165.05 1090.89,1109.14 1098.48,1053.22 
  1100.39,1109.14 1105.74,1053.22 1109.91,1109.14 1114.73,1053.22 1114.86,1109.14 1117.09,1053.22 1122.23,1109.14 1124.61,1053.22 1125.87,1109.14 1132.89,1165.05 
  1133.21,1109.14 1134.64,1053.22 1135.75,1109.14 1141.58,1053.22 1145.28,1109.14 1152.63,1053.22 1156.55,1109.14 1164.14,1053.22 1168.45,1109.14 1174.68,1053.22 
  1176.46,1109.14 1181.45,1165.05 1182.71,1220.97 1186.32,1165.05 1189.7,1220.97 1198.16,1276.88 1198.25,1220.97 1199.85,1276.88 1204.25,1332.8 1209.39,1276.88 
  1212.66,1332.8 1221.63,1276.88 1222.17,1332.8 1223.83,1276.88 1227.07,1332.8 1233.26,1388.71 1236.34,1332.8 1239.14,1388.71 1247.36,1332.8 1247.36,1388.71 
  1255.98,1332.8 1255.98,1388.71 1263.95,1332.8 1267.27,1388.71 1269.7,1332.8 1275.39,1276.88 1278.41,1332.8 1280.28,1276.88 1284.4,1332.8 1288.91,1276.88 
  1291.42,1332.8 1294.02,1388.71 1300.06,1332.8 1304.32,1276.88 1305.41,1332.8 1312.39,1276.88 1314.16,1332.8 1318.81,1276.88 1321.32,1220.97 1323.95,1165.05 
  1326.04,1220.97 1329.67,1165.05 1332.33,1220.97 1340.11,1165.05 1341.45,1220.97 1349.72,1276.88 1352.33,1220.97 1356.16,1276.88 1361.81,1220.97 1367.05,1276.88 
  1370.5,1220.97 1378.35,1276.88 1381.93,1220.97 1387.81,1276.88 1390.53,1332.8 1394.96,1276.88 1401,1332.8 1403.4,1388.71 1406.61,1332.8 1411.41,1388.71 
  1414.96,1332.8 1418.07,1276.88 1423.18,1332.8 1425.97,1388.71 1427.65,1332.8 1431.88,1388.71 1439.83,1332.8 1439.83,1388.71 1444.36,1332.8 1451.49,1388.71 
  1451.75,1332.8 1455.01,1388.71 1461.71,1332.8 1461.71,1388.71 1465.62,1332.8 1465.88,1388.71 1474.77,1332.8 1477.36,1388.71 1483.63,1332.8 1490.16,1388.71 
  1491.99,1332.8 1491.99,1388.71 1495.39,1332.8 1495.61,1388.71 1505.14,1332.8 1505.14,1388.71 1506.87,1332.8 1506.87,1388.71 1510.03,1332.8 1516.75,1388.71 
  1519.64,1332.8 1525.49,1388.71 1525.61,1332.8 1527.45,1276.88 1535.29,1220.97 1536.3,1276.88 1544.66,1332.8 1547.04,1276.88 1551.78,1220.97 1552.05,1276.88 
  1553.69,1332.8 1554.03,1276.88 1555.58,1220.97 1560.61,1276.88 1566.71,1332.8 1568.56,1276.88 1569.69,1220.97 1576.43,1276.88 1580.38,1220.97 1580.76,1276.88 
  1582.31,1220.97 1584.35,1276.88 1591.5,1332.8 1593.64,1276.88 1599.13,1332.8 1601.85,1276.88 1605.65,1220.97 1611.05,1276.88 1615.1,1220.97 1616.49,1276.88 
  1618.93,1332.8 1625.09,1276.88 1629.89,1332.8 1634.66,1276.88 1641.58,1220.97 1642.41,1276.88 1643.41,1220.97 1647.21,1165.05 1651.45,1109.14 1652.03,1165.05 
  1653.16,1220.97 1657.85,1276.88 1664.63,1220.97 1667.96,1276.88 1673.13,1332.8 1675,1276.88 1679.68,1220.97 1680.09,1276.88 1682.08,1332.8 1687.5,1276.88 
  1694.75,1332.8 1697.32,1276.88 1698.93,1332.8 1700.8,1388.71 1701.01,1332.8 1707.73,1276.88 1709.14,1332.8 1709.82,1276.88 1720.86,1220.97 1721.1,1276.88 
  1728.03,1220.97 1728.59,1276.88 1735.23,1332.8 1736.11,1276.88 1743.61,1220.97 1745.8,1276.88 1748.24,1332.8 1751.94,1388.71 1755.95,1332.8 1759.02,1388.71 
  1759.06,1332.8 1762.25,1388.71 1768.52,1332.8 1770.51,1388.71 1777.75,1332.8 1783.44,1388.71 1790.3,1332.8 1790.3,1388.71 1796.44,1332.8 1796.47,1388.71 
  1798.87,1332.8 1804.35,1276.88 1806.53,1332.8 1809.5,1276.88 1810.97,1332.8 1812.4,1388.71 1818.57,1332.8 1822.02,1388.71 1830.55,1332.8 1832.35,1388.71 
  1841.82,1332.8 1842.42,1388.71 1849.85,1332.8 1853.91,1388.71 1860.45,1332.8 1860.45,1388.71 1863.06,1332.8 1869.95,1276.88 1870.7,1332.8 1873.57,1276.88 
  1878.83,1332.8 1882.5,1276.88 1886.15,1332.8 1887.55,1388.71 1894.31,1332.8 1894.74,1388.71 1905.83,1332.8 1905.83,1388.71 1914.68,1332.8 1914.68,1388.71 
  1919.58,1332.8 1921.46,1276.88 1922.97,1332.8 1925.24,1388.71 1926.19,1332.8 1929.07,1388.71 1937.2,1332.8 1937.2,1388.71 1941.44,1332.8 1943.23,1388.71 
  1948.85,1332.8 1948.85,1388.71 1961.31,1332.8 1961.31,1388.71 1972.32,1332.8 1973.2,1388.71 1982.13,1332.8 1982.18,1388.71 1992.14,1332.8 1995.13,1388.71 
  1998.57,1332.8 2001.93,1388.71 2010.25,1332.8 2010.27,1388.71 2015.2,1332.8 2015.2,1388.71 2023.02,1332.8 2023.02,1388.71 2027.04,1332.8 2032.91,1388.71 
  2036.76,1332.8 2037.41,1388.71 2041.88,1332.8 2041.88,1388.71 2047.94,1332.8 2052.42,1388.71 2056.7,1332.8 2057.93,1276.88 2059.86,1332.8 2062.59,1388.71 
  2064.07,1332.8 2067.98,1276.88 2070.58,1332.8 2074.72,1276.88 2077.81,1332.8 2081.1,1388.71 2082.93,1332.8 2088.5,1388.71 2091.68,1332.8 2091.68,1388.71 
  2094.52,1332.8 2096.75,1276.88 2096.97,1332.8 2101.19,1388.71 2101.24,1332.8 2107.43,1276.88 2108.16,1332.8 2109.88,1276.88 2120.54,1220.97 2121,1276.88 
  2132.17,1332.8 2132.39,1276.88 2134.06,1220.97 2140.45,1276.88 2146.65,1220.97 2149.87,1276.88 2155.61,1220.97 2156.11,1276.88 2164.95,1220.97 2165.28,1276.88 
  2170.56,1220.97 2172.79,1276.88 2173.76,1220.97 2182.03,1165.05 2184.41,1220.97 2186.19,1165.05 2192.54,1109.14 2194.12,1165.05 2198.27,1220.97 2204.59,1165.05 
  2208.51,1220.97 2215.16,1165.05 2216.48,1220.97 2219.74,1165.05 2222.19,1109.14 2229.4,1165.05 2229.78,1109.14 2234.92,1053.22 2236.52,1109.14 2238.76,1165.05 
  2247.99,1109.14 2249.93,1053.22 2250.04,1109.14 2254.47,1165.05 2257.44,1220.97 2259.98,1276.88 2262.96,1220.97 2267.87,1165.05 2269.6,1220.97 2276.4,1165.05 
  2278.83,1109.14 2280.12,1165.05 2287.28,1109.14 2288.52,1053.22 2290.55,1109.14 
  "/>
<polyline clip-path="url(#clip4002)" style="stroke:#3da44d; stroke-width:4; stroke-opacity:1; fill:none" points="
  263.233,1332.8 269.848,1388.71 271.14,1332.8 274.597,1276.88 281.261,1332.8 283.51,1276.88 283.644,1332.8 285.348,1388.71 292.458,1332.8 296.622,1388.71 
  303.088,1332.8 307.632,1388.71 315.437,1332.8 315.437,1388.71 321.92,1332.8 326.617,1276.88 327.105,1332.8 329.425,1276.88 331.569,1332.8 335.758,1388.71 
  336.716,1332.8 340.332,1388.71 345.256,1332.8 350.52,1388.71 352.662,1332.8 353.957,1388.71 356.332,1332.8 359.379,1388.71 367.418,1332.8 368.115,1388.71 
  374.588,1332.8 374.588,1388.71 383.208,1332.8 383.208,1388.71 396.914,1332.8 396.914,1388.71 407.035,1332.8 407.035,1388.71 413.802,1332.8 415.506,1388.71 
  424.495,1332.8 424.495,1388.71 431.205,1332.8 432.383,1276.88 435.843,1332.8 441.17,1388.71 443.038,1332.8 444.552,1388.71 448.223,1332.8 451.662,1388.71 
  464.987,1332.8 464.987,1388.71 476.185,1332.8 476.185,1388.71 482.252,1332.8 484.547,1388.71 487.799,1332.8 493.72,1388.71 500.914,1332.8 500.914,1388.71 
  508.203,1332.8 509.337,1388.71 515.593,1332.8 518.409,1388.71 528.256,1332.8 528.256,1388.71 530.101,1332.8 531.841,1388.71 533.254,1332.8 537.486,1276.88 
  538.721,1332.8 545.748,1388.71 553.993,1332.8 557.953,1388.71 559.2,1332.8 564.709,1276.88 565.522,1332.8 572.062,1276.88 573.999,1332.8 576.994,1388.71 
  584.882,1332.8 584.882,1388.71 597.575,1332.8 597.575,1388.71 602.333,1332.8 602.333,1388.71 607.278,1332.8 610.338,1388.71 611.007,1332.8 621.111,1276.88 
  621.982,1332.8 631.823,1388.71 633.756,1332.8 636.606,1388.71 640.015,1332.8 647.753,1276.88 648.168,1332.8 649.563,1276.88 654.634,1220.97 659.959,1165.05 
  660.159,1220.97 663.605,1276.88 670.86,1220.97 674.955,1276.88 678.08,1332.8 681.67,1276.88 683.398,1220.97 687.766,1276.88 695.925,1220.97 700.401,1165.05 
  700.942,1220.97 705.497,1276.88 707.049,1332.8 709.061,1388.71 709.956,1332.8 713.803,1276.88 714.021,1332.8 722.131,1276.88 722.986,1332.8 723.643,1276.88 
  728.018,1220.97 730.542,1276.88 732.247,1220.97 732.51,1276.88 736.202,1332.8 742.004,1388.71 744.397,1332.8 745.948,1276.88 746.987,1220.97 748.086,1276.88 
  751.751,1220.97 756.812,1276.88 764.751,1220.97 766.028,1276.88 777.412,1220.97 778.826,1276.88 780.18,1220.97 788.142,1276.88 791.942,1332.8 792.687,1276.88 
  794.927,1332.8 801.782,1388.71 803.111,1332.8 810.946,1276.88 812.188,1220.97 813.107,1276.88 819.031,1332.8 821.833,1276.88 823.796,1220.97 827.296,1165.05 
  831.013,1220.97 833.312,1165.05 836.145,1220.97 840.056,1165.05 847.248,1220.97 850.505,1165.05 854.106,1109.14 856.893,1165.05 865.212,1220.97 866.791,1165.05 
  873.818,1220.97 877.661,1165.05 881.398,1220.97 883.88,1165.05 886.712,1220.97 888.639,1165.05 891.326,1220.97 900.324,1165.05 901.901,1220.97 903.278,1276.88 
  904.216,1220.97 906.709,1165.05 907.168,1220.97 912.408,1165.05 913.043,1220.97 917.291,1165.05 918.39,1109.14 925.819,1165.05 927.288,1109.14 930.888,1053.22 
  934.243,1109.14 940.768,1053.22 940.997,1109.14 949.331,1053.22 949.95,1109.14 956.142,1053.22 963.028,1109.14 963.036,1053.22 972.635,1109.14 975.164,1165.05 
  975.164,1109.14 982.711,1165.05 985.375,1220.97 986.989,1165.05 988.779,1109.14 992.873,1165.05 998.961,1220.97 1000.85,1165.05 1011.18,1220.97 1013.53,1165.05 
  1018.17,1220.97 1019.55,1165.05 1020.34,1220.97 1028.14,1165.05 1030.5,1220.97 1032.5,1165.05 1040.04,1220.97 1043.66,1165.05 1043.66,1220.97 1053.97,1165.05 
  1054.03,1220.97 1056.24,1165.05 1060.47,1109.14 1062.59,1053.22 1062.68,1109.14 1067.46,1165.05 1068.59,1109.14 1078.57,1053.22 1079.45,1109.14 1087.68,1053.22 
  1089.52,1109.14 1092.34,1165.05 1098.96,1220.97 1100.39,1165.05 1109.54,1220.97 1109.91,1165.05 1114.86,1109.14 1119.12,1165.05 1122.23,1109.14 1125.87,1053.22 
  1127.19,1109.14 1131.72,1165.05 1132.87,1220.97 1132.89,1165.05 1135.75,1109.14 1140.67,1165.05 1145.28,1109.14 1151.29,1165.05 1156.55,1109.14 1161.78,1165.05 
  1168.28,1220.97 1168.45,1165.05 1170.08,1220.97 1176.46,1165.05 1181.45,1109.14 1181.91,1165.05 1182.71,1109.14 1189.7,1053.22 1190.82,1109.14 1198.16,1053.22 
  1199.85,997.308 1200.98,1053.22 1202.13,1109.14 1204.25,1053.22 1206.41,1109.14 1212.66,1053.22 1212.91,1109.14 1220.53,1165.05 1222.17,1109.14 1225.76,1165.05 
  1227.07,1109.14 1233.26,1053.22 1234.54,1109.14 1239.14,1053.22 1240.86,997.308 1242.51,1053.22 1248.44,1109.14 1249.85,1165.05 1254.95,1109.14 1258.43,1165.05 
  1262.59,1220.97 1264.97,1276.88 1267.27,1220.97 1276.67,1276.88 1278.41,1220.97 1284.4,1165.05 1285.34,1220.97 1288.89,1276.88 1291.42,1220.97 1294.02,1165.05 
  1296.85,1220.97 1305.41,1165.05 1306.82,1220.97 1309.38,1276.88 1311.51,1332.8 1314.16,1276.88 1324.2,1332.8 1326.04,1276.88 1332.33,1220.97 1333.9,1276.88 
  1337.02,1332.8 1341.45,1276.88 1341.47,1332.8 1343.13,1388.71 1349.72,1332.8 1350.25,1388.71 1356.16,1332.8 1356.39,1388.71 1367.05,1332.8 1367.05,1388.71 
  1378.35,1332.8 1378.35,1388.71 1387.81,1332.8 1390.52,1388.71 1390.53,1332.8 1399.11,1388.71 1401,1332.8 1401,1388.71 1403.4,1332.8 1410.23,1388.71 
  1411.41,1332.8 1416.87,1388.71 1423.18,1332.8 1423.18,1388.71 1425.97,1332.8 1431.88,1276.88 1433.17,1220.97 1434.82,1276.88 1445.62,1332.8 1451.49,1276.88 
  1454.99,1332.8 1455.01,1276.88 1458.65,1220.97 1465.88,1165.05 1467.22,1220.97 1469.07,1276.88 1475.58,1332.8 1477.36,1276.88 1487.13,1332.8 1490.16,1276.88 
  1491.55,1220.97 1494.07,1276.88 1495.61,1220.97 1496.68,1276.88 1501.93,1220.97 1506.3,1165.05 1507.03,1220.97 1508.96,1276.88 1516.75,1220.97 1518.02,1276.88 
  1525.49,1220.97 1526.1,1276.88 1536.3,1220.97 1536.48,1276.88 1544.13,1332.8 1544.66,1276.88 1551.8,1332.8 1552.05,1276.88 1552.95,1332.8 1553.69,1276.88 
  1554.81,1332.8 1560.61,1276.88 1562.86,1332.8 1566.71,1276.88 1573.45,1332.8 1574.48,1388.71 1576.43,1332.8 1580.76,1276.88 1584.35,1220.97 1584.56,1276.88 
  1591.5,1220.97 1593.87,1276.88 1599.13,1220.97 1601.71,1276.88 1603.63,1332.8 1611.05,1276.88 1616.49,1220.97 1616.58,1276.88 1618.93,1220.97 1619.33,1276.88 
  1628.36,1332.8 1629.89,1276.88 1639.43,1332.8 1642.41,1276.88 1643.84,1332.8 1649.3,1388.71 1652.03,1332.8 1653.16,1276.88 1656.33,1332.8 1657.85,1276.88 
  1658.75,1332.8 1663.37,1388.71 1667.96,1332.8 1673.13,1276.88 1674.05,1332.8 1678.86,1388.71 1680.09,1332.8 1682.08,1276.88 1691.12,1332.8 1694.75,1276.88 
  1698.53,1332.8 1698.93,1276.88 1700.8,1220.97 1706.88,1276.88 1709.14,1220.97 1710.37,1276.88 1715.99,1332.8 1721.1,1276.88 1728.59,1220.97 1728.62,1276.88 
  1735.23,1220.97 1740.04,1276.88 1745.8,1220.97 1747.85,1276.88 1748.24,1220.97 1751.94,1165.05 1757.13,1220.97 1759.02,1165.05 1762.25,1109.14 1767.35,1165.05 
  1770.51,1109.14 1774.65,1165.05 1783.44,1109.14 1787.09,1053.22 1787.42,1109.14 1794.84,1165.05 1796.47,1109.14 1800.66,1165.05 1806.53,1109.14 1810.97,1053.22 
  1811.01,1109.14 1812.4,1053.22 1819.32,1109.14 1822.02,1053.22 1828.92,1109.14 1832.35,1053.22 1837.7,1109.14 1842.42,1053.22 1842.98,1109.14 1851.7,1165.05 
  1853.91,1109.14 1858.7,1053.22 1859.26,1109.14 1866.01,1165.05 1870.7,1109.14 1877.33,1165.05 1878.83,1109.14 1880.27,1165.05 1886.15,1109.14 1887.55,1053.22 
  1893.03,1109.14 1894.74,1053.22 1900.4,1109.14 1901.43,1053.22 1902.78,1109.14 1904.37,1165.05 1907.25,1109.14 1913,1165.05 1918.72,1220.97 1922.97,1165.05 
  1925.24,1109.14 1926.86,1165.05 1929.07,1109.14 1932.15,1165.05 1934.58,1109.14 1943.23,1053.22 1943.88,1109.14 1946.14,1053.22 1951.99,1109.14 1954.07,1165.05 
  1956.3,1220.97 1958.11,1165.05 1962.59,1220.97 1965.71,1276.88 1973.2,1220.97 1973.83,1276.88 1979.56,1332.8 1982.18,1276.88 1989.25,1332.8 1995.13,1276.88 
  2001.73,1332.8 2001.93,1276.88 2009.34,1332.8 2010.27,1276.88 2011.9,1220.97 2013.85,1276.88 2019.05,1220.97 2026.1,1276.88 2032.91,1220.97 2034.87,1276.88 
  2037.41,1220.97 2040.95,1165.05 2043.58,1220.97 2051.33,1276.88 2052.42,1220.97 2056.86,1276.88 2059.86,1220.97 2062.59,1165.05 2066.17,1220.97 2070.58,1165.05 
  2070.61,1220.97 2076.9,1276.88 2077.81,1220.97 2081.1,1165.05 2081.55,1220.97 2086.07,1276.88 2088.23,1332.8 2088.5,1276.88 2090.89,1220.97 2091.84,1276.88 
  2096.97,1220.97 2100.73,1276.88 2101.19,1220.97 2108.16,1165.05 2113.78,1220.97 2121,1165.05 2124.28,1220.97 2126.23,1276.88 2129.89,1332.8 2132.17,1276.88 
  2134.08,1332.8 2135.64,1388.71 2140.45,1332.8 2140.91,1388.71 2149.87,1332.8 2149.87,1388.71 2156.11,1332.8 2157.33,1388.71 2165.28,1332.8 2165.28,1388.71 
  2172.79,1332.8 2172.79,1388.71 2184.41,1332.8 2184.41,1388.71 2194.12,1332.8 2194.12,1388.71 2198.27,1332.8 2203.52,1388.71 2208.51,1332.8 2216.14,1388.71 
  2216.48,1332.8 2229.24,1388.71 2229.4,1332.8 2236.52,1276.88 2238.76,1220.97 2239.22,1276.88 2245.53,1332.8 2248.27,1388.71 2250.04,1332.8 2254.47,1276.88 
  2256.78,1332.8 2257.44,1276.88 2259.98,1220.97 2260.21,1276.88 2265.91,1332.8 2269.6,1276.88 2277.94,1332.8 2280.12,1276.88 2287.6,1332.8 2290.55,1276.88 
  2291.9,1332.8 
  "/>
<polyline clip-path="url(#clip4002)" style="stroke:#c271d2; stroke-width:4; stroke-opacity:1; fill:none" points="
  263.233,1332.8 269.848,1276.88 273.913,1332.8 281.261,1276.88 281.984,1332.8 283.644,1276.88 285.348,1220.97 286.359,1276.88 296.622,1220.97 298.944,1276.88 
  300.375,1332.8 302.54,1388.71 307.632,1332.8 307.632,1388.71 311.652,1332.8 311.652,1388.71 327.105,1332.8 327.105,1388.71 331.569,1332.8 333.049,1388.71 
  335.758,1332.8 340.332,1276.88 341.313,1332.8 350.164,1388.71 350.52,1332.8 352.179,1388.71 353.957,1332.8 359.379,1276.88 360.206,1332.8 368.115,1276.88 
  369.612,1220.97 370.658,1276.88 373.348,1332.8 381.674,1276.88 381.765,1332.8 388.335,1276.88 392.936,1332.8 398.657,1388.71 401.162,1332.8 403.214,1388.71 
  415.506,1332.8 415.506,1388.71 422.219,1332.8 422.219,1388.71 435.843,1332.8 435.843,1388.71 441.17,1332.8 441.17,1388.71 444.552,1332.8 451.662,1276.88 
  452.942,1332.8 454.458,1276.88 459.987,1332.8 471.165,1388.71 471.338,1332.8 475.769,1388.71 484.547,1332.8 484.547,1388.71 493.72,1332.8 493.72,1388.71 
  496.745,1332.8 503.044,1388.71 509.337,1332.8 514.869,1388.71 518.409,1332.8 526.852,1276.88 527.3,1332.8 531.841,1276.88 536.784,1332.8 538.721,1276.88 
  545.748,1220.97 548.069,1276.88 551.129,1332.8 557.953,1276.88 561.618,1332.8 565.522,1276.88 573.952,1332.8 573.999,1276.88 575.993,1332.8 576.994,1276.88 
  578.549,1220.97 586.586,1165.05 588.93,1220.97 592.435,1276.88 593.764,1332.8 600.164,1276.88 602.664,1332.8 610.338,1276.88 612.134,1332.8 621.982,1276.88 
  624.205,1332.8 628.742,1388.71 631.823,1332.8 631.823,1388.71 636.606,1332.8 636.606,1388.71 648.168,1332.8 648.168,1388.71 660.159,1332.8 660.159,1388.71 
  663.605,1332.8 664.436,1388.71 674.955,1332.8 674.955,1388.71 678.08,1332.8 680.749,1388.71 687.766,1332.8 693.234,1388.71 700.942,1332.8 700.942,1388.71 
  705.497,1332.8 707.049,1276.88 707.887,1332.8 709.061,1276.88 711.479,1332.8 714.021,1276.88 722.986,1220.97 724.472,1276.88 730.542,1220.97 732.51,1165.05 
  733.673,1220.97 736.202,1165.05 742.004,1109.14 742.191,1165.05 747.912,1220.97 748.086,1165.05 752.769,1220.97 756.231,1276.88 756.812,1220.97 765.369,1276.88 
  766.028,1220.97 767.428,1276.88 771.153,1332.8 773.514,1388.71 778.826,1332.8 778.826,1388.71 788.142,1332.8 791.552,1388.71 791.942,1332.8 793.068,1388.71 
  794.927,1332.8 796.285,1388.71 801.782,1332.8 801.782,1388.71 813.107,1332.8 813.107,1388.71 819.031,1332.8 819.384,1388.71 831.013,1332.8 831.013,1388.71 
  836.145,1332.8 836.145,1388.71 847.248,1332.8 847.248,1388.71 856.893,1332.8 856.893,1388.71 865.212,1332.8 865.212,1388.71 873.818,1332.8 874.761,1388.71 
  881.398,1332.8 886.712,1276.88 887.712,1332.8 891.326,1276.88 897.673,1332.8 901.901,1276.88 903.278,1220.97 907.168,1165.05 908.692,1220.97 910.683,1276.88 
  913.043,1220.97 913.559,1276.88 921.678,1332.8 925.819,1276.88 933.587,1332.8 934.243,1276.88 939.135,1332.8 940.997,1276.88 944.583,1332.8 949.95,1276.88 
  955.858,1332.8 963.028,1276.88 966.413,1332.8 972.635,1276.88 975.164,1220.97 975.883,1276.88 982.711,1220.97 985.375,1165.05 987.707,1220.97 989.794,1276.88 
  992.873,1220.97 998.961,1165.05 1002.98,1220.97 1009.7,1276.88 1011.18,1220.97 1013.37,1276.88 1018.17,1220.97 1020.34,1165.05 1020.59,1220.97 1028.57,1276.88 
  1030.5,1220.97 1032.27,1276.88 1037.63,1332.8 1040.04,1276.88 1043.66,1220.97 1049.36,1276.88 1052.75,1332.8 1054.03,1276.88 1062.68,1220.97 1063.21,1276.88 
  1067.46,1220.97 1072.72,1276.88 1076.14,1332.8 1079.45,1276.88 1082.3,1332.8 1085.17,1388.71 1089.52,1332.8 1089.52,1388.71 1092.34,1332.8 1094.5,1388.71 
  1098.96,1332.8 1099.95,1388.71 1109.54,1332.8 1109.54,1388.71 1119.12,1332.8 1119.67,1388.71 1127.19,1332.8 1127.19,1388.71 1131.72,1332.8 1131.72,1388.71 
  1132.87,1332.8 1135.71,1388.71 1140.67,1332.8 1144.61,1388.71 1151.29,1332.8 1151.29,1388.71 1161.78,1332.8 1161.78,1388.71 1168.28,1332.8 1170.08,1276.88 
  1171.47,1332.8 1181.91,1276.88 1184.17,1332.8 1190.82,1276.88 1193.96,1332.8 1197.54,1388.71 1200.98,1332.8 1202.13,1276.88 1206.11,1332.8 1206.41,1276.88 
  1210.42,1332.8 1212.91,1276.88 1220.53,1220.97 1222.76,1276.88 1225.76,1220.97 1231.86,1276.88 1234.54,1220.97 1237.55,1276.88 1238.62,1332.8 1242.49,1388.71 
  1242.51,1332.8 1248.44,1276.88 1249.85,1220.97 1252.93,1276.88 1258.43,1220.97 1262.59,1165.05 1264.55,1220.97 1264.97,1165.05 1266.73,1220.97 1270.72,1276.88 
  1276.67,1220.97 1280.12,1276.88 1285.34,1220.97 1287.07,1276.88 1288.89,1220.97 1292.67,1276.88 1294.26,1332.8 1296.85,1276.88 1303.18,1332.8 1306.82,1276.88 
  1309.38,1220.97 1311.51,1165.05 1315.94,1220.97 1324.2,1165.05 1325.76,1220.97 1333.24,1276.88 1333.9,1220.97 1337.02,1165.05 1339.48,1220.97 1341.47,1165.05 
  1343.13,1109.14 1350.25,1053.22 1351.2,1109.14 1356.39,1053.22 1357.5,1109.14 1359.39,1165.05 1363.24,1109.14 1371.28,1165.05 1373.18,1109.14 1375.35,1165.05 
  1377.05,1220.97 1378.09,1276.88 1383.25,1332.8 1390.52,1276.88 1392.21,1332.8 1399.11,1276.88 1400.86,1220.97 1404.48,1276.88 1410.23,1220.97 1415.94,1276.88 
  1416.87,1220.97 1419.25,1165.05 1419.84,1220.97 1427.65,1276.88 1434.82,1220.97 1437.98,1276.88 1445.62,1220.97 1448.79,1276.88 1454.99,1220.97 1458.74,1276.88 
  1467.22,1220.97 1468.96,1276.88 1469.07,1220.97 1475.58,1165.05 1480.02,1220.97 1487.13,1165.05 1491.55,1220.97 1494.07,1165.05 1496.68,1109.14 1498.79,1165.05 
  1500.4,1220.97 1503.79,1276.88 1507.03,1220.97 1508.61,1276.88 1508.96,1220.97 1518.02,1165.05 1521.25,1220.97 1526.1,1165.05 1531.24,1220.97 1536.48,1165.05 
  1537.02,1220.97 1544.13,1165.05 1546.25,1220.97 1551.8,1165.05 1552.95,1109.14 1554.81,1053.22 1558.86,1109.14 1562.86,1053.22 1567.22,1109.14 1570.89,1165.05 
  1573.45,1109.14 1574.48,1053.22 1577.76,1109.14 1584.56,1053.22 1587.71,1109.14 1593.87,1053.22 1598.56,1109.14 1601.71,1053.22 1603.63,997.308 1607.13,1053.22 
  1616.43,1109.14 1616.58,1053.22 1619.33,997.308 1622.12,1053.22 1628.36,997.308 1632.35,1053.22 1635.86,1109.14 1639.43,1053.22 1643.84,997.308 1648.86,1053.22 
  1649.3,997.308 1652.15,1053.22 1656.33,997.308 1658.75,941.393 1663.37,885.477 1665.28,941.393 1673.74,997.308 1674.05,941.393 1678.1,997.308 1678.86,941.393 
  1688.48,997.308 1691.12,941.393 1698.53,885.477 1700.03,941.393 1706.88,885.477 1710.37,829.562 1713.16,885.477 1715.99,829.562 1723.69,885.477 1726.82,941.393 
  1728.62,885.477 1735.26,941.393 1737.25,997.308 1740.04,941.393 1745.2,997.308 1747.85,941.393 1752.65,997.308 1757.13,941.393 1760.14,997.308 1762.96,1053.22 
  1767.35,997.308 1769.8,1053.22 1771.19,1109.14 1774.28,1165.05 1774.65,1109.14 1784.64,1165.05 1787.42,1109.14 1794.84,1053.22 1796.44,1109.14 1800.66,1053.22 
  1805.42,1109.14 1811.01,1053.22 1811.49,1109.14 1819.32,1053.22 1823.22,1109.14 1828.16,1165.05 1828.92,1109.14 1835.84,1165.05 1836.99,1220.97 1837.7,1165.05 
  1841.1,1220.97 1842.98,1165.05 1850.51,1220.97 1851.7,1165.05 1857.23,1220.97 1859.26,1165.05 1866.01,1109.14 1869.49,1165.05 1873.82,1220.97 1877.33,1165.05 
  1880.27,1109.14 1884.69,1165.05 1893.03,1109.14 1896.63,1165.05 1900.4,1109.14 1902.78,1053.22 1904.37,997.308 1908.95,1053.22 1910.26,1109.14 1913,1053.22 
  1918.09,1109.14 1918.72,1053.22 1926.86,997.308 1929.35,1053.22 1932.15,997.308 1932.84,1053.22 1940.36,1109.14 1943.88,1053.22 1951.51,1109.14 1951.99,1053.22 
  1954.07,997.308 1956.3,941.393 1961.06,997.308 1962.59,941.393 1965.71,885.477 1967.86,941.393 1971.78,997.308 1973.83,941.393 1979.56,885.477 1981.87,941.393 
  1987.41,997.308 1989.25,941.393 1997.65,997.308 2001.73,941.393 2008.44,997.308 2009.34,941.393 2013.85,885.477 2018.78,941.393 2024.14,997.308 2026.1,941.393 
  2034.87,885.477 2037.11,941.393 2039,997.308 2043.58,941.393 2050.94,997.308 2051.33,941.393 2056.86,885.477 2059.16,941.393 2061.79,997.308 2066.17,941.393 
  2069.98,997.308 2070.61,941.393 2076.9,885.477 2081.55,829.562 2083.11,885.477 2086.07,829.562 2088.23,773.647 2091.84,717.732 2093.91,773.647 2100.73,717.732 
  2104.87,773.647 2109.38,829.562 2113.78,773.647 2118.83,829.562 2120.51,885.477 2124.28,829.562 2126.23,773.647 2129.89,717.732 2133.42,773.647 2134.08,717.732 
  2135.64,661.816 2140.05,717.732 2140.91,661.816 2146.84,605.901 2149.13,661.816 2152.84,717.732 2154.67,773.647 2157.33,717.732 2158.83,773.647 2159.12,717.732 
  2166.47,773.647 2168.87,717.732 2173.33,773.647 2176.85,829.562 2178.24,773.647 2178.92,829.562 2188.2,885.477 2189.73,941.393 2191.9,885.477 2195.72,941.393 
  2198.05,997.308 2203.52,941.393 2206.42,997.308 2210.3,1053.22 2216.14,997.308 2222.78,1053.22 2224.71,1109.14 2228.48,1165.05 2229.24,1109.14 2230.84,1165.05 
  2234.6,1220.97 2239.22,1165.05 2241.13,1220.97 2245.53,1165.05 2248.27,1109.14 2252.9,1165.05 2256.78,1109.14 2258.57,1165.05 2260.21,1109.14 2265.91,1053.22 
  2266.12,1109.14 2277.87,1165.05 2277.94,1109.14 2279.08,1165.05 2287.18,1220.97 2287.6,1165.05 2291.8,1220.97 2291.9,1165.05 
  "/>
<path clip-path="url(#clip4000)" d="
M1845.43 507.595 L2280.76 507.595 L2280.76 205.195 L1845.43 205.195  Z
  " fill="#ffffff" fill-rule="evenodd" fill-opacity="1"/>
<polyline clip-path="url(#clip4000)" style="stroke:#000000; stroke-width:4; stroke-opacity:1; fill:none" points="
  1845.43,507.595 2280.76,507.595 2280.76,205.195 1845.43,205.195 1845.43,507.595 
  "/>
<polyline clip-path="url(#clip4000)" style="stroke:#009af9; stroke-width:4; stroke-opacity:1; fill:none" points="
  1869.43,265.675 2013.43,265.675 
  "/>
<g clip-path="url(#clip4000)">
<text style="fill:#000000; fill-opacity:1; font-family:Arial,Helvetica Neue,Helvetica,sans-serif; font-size:48px; text-anchor:start;" transform="rotate(0, 2037.43, 283.175)" x="2037.43" y="283.175">channel2</text>
</g>
<polyline clip-path="url(#clip4000)" style="stroke:#e26f46; stroke-width:4; stroke-opacity:1; fill:none" points="
  1869.43,326.155 2013.43,326.155 
  "/>
<g clip-path="url(#clip4000)">
<text style="fill:#000000; fill-opacity:1; font-family:Arial,Helvetica Neue,Helvetica,sans-serif; font-size:48px; text-anchor:start;" transform="rotate(0, 2037.43, 343.655)" x="2037.43" y="343.655">channel3</text>
</g>
<polyline clip-path="url(#clip4000)" style="stroke:#3da44d; stroke-width:4; stroke-opacity:1; fill:none" points="
  1869.43,386.635 2013.43,386.635 
  "/>
<g clip-path="url(#clip4000)">
<text style="fill:#000000; fill-opacity:1; font-family:Arial,Helvetica Neue,Helvetica,sans-serif; font-size:48px; text-anchor:start;" transform="rotate(0, 2037.43, 404.135)" x="2037.43" y="404.135">channel4</text>
</g>
<polyline clip-path="url(#clip4000)" style="stroke:#c271d2; stroke-width:4; stroke-opacity:1; fill:none" points="
  1869.43,447.115 2013.43,447.115 
  "/>
<g clip-path="url(#clip4000)">
<text style="fill:#000000; fill-opacity:1; font-family:Arial,Helvetica Neue,Helvetica,sans-serif; font-size:48px; text-anchor:start;" transform="rotate(0, 2037.43, 464.615)" x="2037.43" y="464.615">channel5</text>
</g>
</svg>
